<?xml version="1.0" encoding="UTF-8" standalone="no"?>
<svg
   xmlns:dc="http://purl.org/dc/elements/1.1/"
   xmlns:cc="http://creativecommons.org/ns#"
   xmlns:rdf="http://www.w3.org/1999/02/22-rdf-syntax-ns#"
   xmlns:svg="http://www.w3.org/2000/svg"
   xmlns="http://www.w3.org/2000/svg"
   xmlns:sodipodi="http://sodipodi.sourceforge.net/DTD/sodipodi-0.dtd"
   xmlns:inkscape="http://www.inkscape.org/namespaces/inkscape"
   id="chord"
   version="1.1"
   viewBox="0 0 100 1050"
   height="1050"
   width="100"
   sodipodi:docname="chord.svg"
   inkscape:version="0.92.5 (2060ec1f9f, 2020-04-08)">
  <sodipodi:namedview
     pagecolor="#ffffff"
     bordercolor="#666666"
     borderopacity="1"
     objecttolerance="10"
     gridtolerance="10"
     guidetolerance="10"
     inkscape:pageopacity="0"
     inkscape:pageshadow="2"
     inkscape:window-width="1920"
     inkscape:window-height="1021"
     id="namedview7"
     showgrid="false"
     inkscape:zoom="3.776"
     inkscape:cx="7.9672607"
     inkscape:cy="65.654784"
     inkscape:window-x="0"
     inkscape:window-y="0"
     inkscape:window-maximized="1"
     inkscape:current-layer="layer1" />
  <defs
     id="defs851" />
  <metadata
     id="metadata854">
    <rdf:RDF>
      <cc:Work
         rdf:about="">
        <dc:format>image/svg+xml</dc:format>
        <dc:type
           rdf:resource="http://purl.org/dc/dcmitype/StillImage" />
        <dc:title></dc:title>
      </cc:Work>
    </rdf:RDF>
  </metadata>
  <g
     transform="translate(0,-29.821314)"
     id="layer1">
    <path
       id="path1414"
       d="M 56.568116,50.259263 C 49.124647,60.962636 9.5832605,45.462591 9.5832605,79.133148 c 0,32.212212 80.2348845,51.649442 80.5724275,22.509912 0.334705,-28.894598 -80.5724275,-11.160632 -80.5724275,22.24347 0,31.94573 80.2348845,51.38295 80.5724275,22.24345 0.334705,-28.89461 -80.5724275,-11.16063 -80.5724275,22.50991 0,32.21222 80.2348845,51.64943 80.5724275,22.50991 0.334705,-28.89459 -80.5724275,-11.16063 -80.5724275,22.3645 0,32.06678 80.2348895,51.50401 80.5724295,22.36449 0.3347,-28.89461 -80.5724295,-11.16063 -80.5724295,22.50992 0,32.21221 80.2348895,51.64944 80.5724295,22.50992 0.3347,-28.8946 -80.5724295,-11.16064 -80.5724295,22.24346 0,31.94573 80.2348895,51.38295 80.5724295,22.24345 0.3347,-28.89461 -80.5724295,-11.16063 -80.5724295,22.50991 0,32.21222 80.2348895,51.64943 80.5724295,22.50991 0.3347,-28.89459 -80.5724295,-11.16063 -80.5724295,22.30169 0,32.00396 80.2348845,51.44119 80.5724275,22.30167 0.334705,-28.89461 -80.5724275,-11.16063 -80.5724275,22.50992 0,32.21221 80.2348845,51.64944 80.5724275,22.50992 0.334705,-28.8946 -80.5724275,-11.16064 -80.5724275,22.24346 0,31.94573 80.2348845,51.38295 80.5724275,22.24345 0.334705,-28.89461 -80.5724275,-11.16063 -80.5724275,22.50991 0,32.21222 80.2348845,51.64943 80.5724275,22.50991 0.334705,-28.89459 -80.5724275,-11.16063 -80.5724275,22.3645 0,32.06678 80.2348895,51.50401 80.5724295,22.36449 0.3347,-28.89461 -80.5724295,-11.16063 -80.5724295,22.50992 0,32.21221 80.2348895,51.64944 80.5724295,22.50992 0.3347,-28.8946 -80.5724295,-11.16064 -80.5724295,22.24346 0,31.94573 80.2348895,51.38295 80.5724295,22.24345 0.3347,-28.89461 -80.5724295,-11.16063 -80.5724295,22.50991 0,32.21222 80.2348895,51.64943 80.5724295,22.50991 0.3347,-28.89459 -80.5724295,-11.16063 -80.5724295,22.4895 0,32.19178 80.2348805,51.62901 80.5724205,22.48949 0.33471,-28.89461 -80.5724205,-11.16063 -80.5724205,22.50992 0,32.21221 80.2348805,51.64944 80.5724205,22.50992 0.33471,-28.8946 -80.5724205,-11.16064 -80.5724205,22.24346 0,31.94573 80.2348805,51.38295 80.5724205,22.24345 0.33471,-28.89461 -80.5724205,-11.16063 -80.5724205,22.50991 0,32.21222 80.2348805,51.64943 80.5724205,22.50991 0.33471,-28.89459 -80.5724205,-11.16063 -80.5724205,22.3645 0,32.06678 80.2348895,51.50401 80.5724305,22.36449 0.3347,-28.89461 -80.5724305,-11.16063 -80.5724305,22.50992 0,32.21218 80.2348895,51.64948 80.5724305,22.50992 0.3347,-28.8946 -80.5724305,-11.16064 -79.272959,24.73226 0.802129,19.3631 13.874234,19.3857 21.213787,21.3231 23.742607,6.0027 23.782718,35.7207 23.782718,35.7207"
       style="fill:none;stroke:#6c6c6c;stroke-width:14.92268467;stroke-linecap:butt;stroke-linejoin:miter;stroke-miterlimit:4;stroke-dasharray:none;stroke-opacity:1"
       inkscape:connector-curvature="0"
       sodipodi:nodetypes="cssssssssssssssssssssssssssssssssssssssssssccc" />
  </g>
</svg>
