<?xml version="1.0" standalone="yes"?>
<!DOCTYPE svg PUBLIC "-//W3C//DTD SVG 1.1//EN"
 "http://www.w3.org/Graphics/SVG/1.1/DTD/svg11.dtd">
<svg xmlns="http://www.w3.org/2000/svg" version="1.1"
  width="100%" height="100%" viewBox="0 0 1920 1080"
  style="fill: none; font-family: Arial;
 font: Arial;
">

<!-- Creator: NGspice -->

<rect x="0" y="0" width="1920" height="1080" fill="white" stroke="none"/>
<text stroke="none" fill="black" font-size="20" x="672" y="1060">
time
</text>
<text stroke="none" fill="black" font-size="20" x="13" y="20">
tran1: DTL D-Latch Characteristic
</text>
<path stroke="black" d="M65 1000l0 -913"/>
<text stroke="none" fill="black" font-size="20" x="46" y="1030">
0.0
</text>
<path stroke="black" stroke-dasharray="1,2" d="M214 1000l0 -913"/>
<text stroke="none" fill="black" font-size="20" x="195" y="1030">
1.0
</text>
<path stroke="black" stroke-dasharray="1,2" d="M363 1000l0 -913"/>
<text stroke="none" fill="black" font-size="20" x="344" y="1030">
2.0
</text>
<path stroke="black" stroke-dasharray="1,2" d="M512 1000l0 -913"/>
<text stroke="none" fill="black" font-size="20" x="493" y="1030">
3.0
</text>
<path stroke="black" stroke-dasharray="1,2" d="M661 1000l0 -913"/>
<text stroke="none" fill="black" font-size="20" x="642" y="1030">
4.0
</text>
<path stroke="black" stroke-dasharray="1,2" d="M810 1000l0 -913"/>
<text stroke="none" fill="black" font-size="20" x="791" y="1030">
5.0
</text>
<path stroke="black" stroke-dasharray="1,2" d="M959 1000l0 -913"/>
<text stroke="none" fill="black" font-size="20" x="940" y="1030">
6.0
</text>
<path stroke="black" stroke-dasharray="1,2" d="M1108 1000l0 -913"/>
<text stroke="none" fill="black" font-size="20" x="1089" y="1030">
7.0
</text>
<path stroke="black" stroke-dasharray="1,2" d="M1257 1000l0 -913"/>
<text stroke="none" fill="black" font-size="20" x="1238" y="1030">
8.0
</text>
<path stroke="black" stroke-dasharray="1,2" d="M1406 1000l0 -913"/>
<text stroke="none" fill="black" font-size="20" x="1387" y="1030">
9.0
</text>
<path stroke="black" stroke-dasharray="1,2" d="M1555 1000l0 -913"/>
<text stroke="none" fill="black" font-size="20" x="1529" y="1030">
10.0
</text>
<path stroke="black" stroke-dasharray="1,2" d="M1704 1000l0 -913"/>
<text stroke="none" fill="black" font-size="20" x="1678" y="1030">
11.0
</text>
<path stroke="black" stroke-dasharray="1,2" d="M1853 1000l0 -913"/>
<text stroke="none" fill="black" font-size="20" x="1827" y="1030">
12.0
</text>
<text stroke="none" fill="black" font-size="20" x="1152" y="1060">
us
</text>
<path stroke="black" stroke-dasharray="1,2" d="M65 1000l1788 0"/>
<text stroke="none" fill="black" font-size="20" x="11" y="1010">
-5.0
</text>
<path stroke="black" stroke-dasharray="1,2" d="M65 917l1788 0"/>
<text stroke="none" fill="black" font-size="20" x="11" y="927">
-4.0
</text>
<path stroke="black" stroke-dasharray="1,2" d="M65 834l1788 0"/>
<text stroke="none" fill="black" font-size="20" x="11" y="844">
-3.0
</text>
<path stroke="black" stroke-dasharray="1,2" d="M65 751l1788 0"/>
<text stroke="none" fill="black" font-size="20" x="11" y="761">
-2.0
</text>
<path stroke="black" stroke-dasharray="1,2" d="M65 668l1788 0"/>
<text stroke="none" fill="black" font-size="20" x="11" y="678">
-1.0
</text>
<path stroke="black" d="M65 585l1788 0"/>
<text stroke="none" fill="black" font-size="20" x="24" y="595">
0.0
</text>
<path stroke="black" stroke-dasharray="1,2" d="M65 502l1788 0"/>
<text stroke="none" fill="black" font-size="20" x="24" y="512">
1.0
</text>
<path stroke="black" stroke-dasharray="1,2" d="M65 419l1788 0"/>
<text stroke="none" fill="black" font-size="20" x="24" y="429">
2.0
</text>
<path stroke="black" stroke-dasharray="1,2" d="M65 336l1788 0"/>
<text stroke="none" fill="black" font-size="20" x="24" y="346">
3.0
</text>
<path stroke="black" stroke-dasharray="1,2" d="M65 253l1788 0"/>
<text stroke="none" fill="black" font-size="20" x="24" y="263">
4.0
</text>
<path stroke="black" stroke-dasharray="1,2" d="M65 170l1788 0"/>
<text stroke="none" fill="black" font-size="20" x="24" y="180">
5.0
</text>
<path stroke="black" stroke-dasharray="1,2" d="M65 87l1788 0"/>
<text stroke="none" fill="black" font-size="20" x="24" y="97">
6.0
</text>
<text stroke="none" fill="black" font-size="20" x="13" y="40">
V
</text>
<path stroke="red" d="M894 29l89 0"/>
<text stroke="none" fill="black" font-size="20" x="996" y="40">
data
</text>
<path stroke="red" d="M65 585l0 -107 1 -37 0 -271 149 0 1 32M216 392l0 -190M216 392l1 193 146 0 0 -106 1 -47 0 -262 149 0 1 42M514 295l0 -83M514 295l1 166M515 585l0 -124M515 585l146 0 0 -124 1 -91 0 -200 149 0 1 33M812 399l0 -196M812 399l1 186"/>
<path stroke="red" d="M813 585l146 0 0 -102 1 -42 0 -271 149 0 1 41M1110 294l0 -83M1110 294l1 166M1111 585l0 -125M1111 585l146 0 0 -135 1 -65 0 -215 149 0 1 42M1408 295l0 -83M1408 295l1 166M1409 585l0 -124M1409 585l146 0 0 -124 1 -91 0 -200 149 0"/>
<path stroke="red" d="M1705 170l1 33M1706 401l0 -198M1706 401l1 184 146 0"/>
<path stroke="blue" d="M65 29l89 0"/>
<text stroke="none" fill="black" font-size="20" x="167" y="40">
enable
</text>
<path stroke="blue" d="M65 564l0 -2 1 0 0 -1 1 0 0 -1 2 0 1 -1 2 0 1 -1 2 0 1 -1 3 0 2 -1 3 0 1 -1 3 0 2 -1 4 0 1 -1 5 0 1 -1 9 0 2 -1 12 0 1 -1 24 0 2 -1 65 0M216 550l0 -1M216 550l1 0 1 1 1 0 2 1 1 0 2 1 1 0 2 1 1 0 1 1 3 0 2 1 1 0 2 1 4 0 2 1"/>
<path stroke="blue" d="M243 558l3 0 1 1 6 0 2 1 6 0 1 1 11 0 1 1 17 0 1 1 40 0 2 1 29 0 0 -2 1 0 0 -1 1 0 0 -1 2 0 1 -1 1 0 2 -1 1 0 2 -1 3 0 1 -1 3 0 2 -1 3 0 1 -1 5 0 1 -1 5 0 1 -1 9 0 2 -1 11 0 2 -1 24 0 1 -1 66 0 2 2 1 0 1 1 2 0 1 1 2 0 1 1"/>
<path stroke="blue" d="M524 554l3 0 0 -95 1 -80 1 -132 0 -90M529 159l1 4M530 170l0 -7M530 170l1 12 2 16 1 15 2 14 1 14 2 14 1 13 2 12 1 12 2 11 1 11 2 11 1 10 2 10 1 9 2 9 1 9 2 8 1 8 2 7 1 8 2 7 1 7 2 6 1 6 2 6 1 6 2 6 1 5 2 5 1 5 2 5 1 5 2 4"/>
<path stroke="blue" d="M581 476l1 4 2 4 1 4 2 3 1 4 1 3 2 3 1 3 2 3 1 2 2 3 1 2 2 3 1 2 3 3M604 733l0 -211M604 733l1 89M605 922l0 -100M605 919l1 -4 0 -8 1 -10 0 -9 2 -15 1 -14 1 -15 1 -17 2 -16 1 -14 2 -14 1 -12 2 -12 1 -12 2 -10 1 -10 2 -9 1 -9"/>
<path stroke="blue" d="M627 709l2 -8 1 -8 2 -8 1 -7 2 -6 1 -7 2 -6 1 -5 2 -6 1 -5 2 -5 1 -4 2 -4 1 -5 2 -3 1 -4 2 -4 1 -3 2 -3 2 -6 2 -3 1 -1 0 -2 1 -1 0 -2 1 0 0 -1 1 0 2 -4 2 -2 1 -2 12 -12 2 -1 2 -2 2 -1 1 -1 2 -1 1 -1 2 -1 1 -1 2 0 1 -1 2 -1"/>
<path stroke="blue" d="M699 561l1 0 2 -1 1 0 2 -1 1 0 2 -1 1 0 2 -1 1 0 2 -1 3 0 1 -1 3 0 2 -1 4 0 2 -1 4 0 2 -1 9 0 1 -1 12 0 1 -1 24 0 2 -1 28 0M812 550l0 -1M812 550l1 1 2 0 2 1 1 0 2 1 1 0 2 1 1 0 2 1 1 0 2 1 3 0 1 1 3 0 2 1 4 0 1 1 5 0 1 1"/>
<path stroke="blue" d="M849 560l8 0 1 1 9 0 2 1 16 0 2 1 40 0 1 1 31 0 0 -2 1 0 0 -1 1 0 0 -1 1 0 2 -1 1 0 2 -1 3 0 1 -1 2 0 1 -1 0 -81 1 -107 1 -138 0 -71M976 161l1 4M977 172l0 -7M977 172l1 13 2 16 1 15 2 14 1 14 2 13 1 13 2 12 1 12 2 11 1 11"/>
<path stroke="blue" d="M993 316l2 10 1 10 2 10 1 9 2 9 1 9 2 8 1 8 2 8 1 7 2 7 1 7 2 6 1 7 2 6 1 5 2 6 1 5 2 5 1 5 2 5 1 4 2 5 1 4 2 4 1 3 2 4 1 3 2 4 1 3 2 3 1 2 2 3 1 2 2 3 2 4 3 3M1051 756l0 -234M1051 756l1 120M1052 922l0 -46M1052 918l1 -4"/>
<path stroke="blue" d="M1053 914l0 -8 1 -10 0 -10 1 -13 2 -15 1 -13 1 -15 1 -16 2 -15 1 -14 2 -12 1 -13 2 -11 1 -10 2 -10 1 -10 2 -9 1 -8 2 -8 1 -8 2 -7 1 -6 2 -7 1 -6 2 -6 1 -5 2 -5 1 -5 2 -5 1 -4 2 -4 1 -4 2 -4 1 -3 2 -4 1 -3 2 -3 1 -3 2 -3"/>
<path stroke="blue" d="M1107 599l2 -4 1 0 0 -1 1 0 0 -1 1 0 1 -1 1 -2 1 -1 1 -2 2 -1 1 -2 2 -1 1 -1 2 -1 1 -1 2 -1 1 -1 2 -1 1 0 2 -1 1 -1 2 0 1 -1 2 0 1 -1 2 0 1 -1 3 0 2 -1 1 0 2 -1 4 0 2 -1 4 0 2 -1 6 0 1 -1 9 0 2 -1 13 0 1 -1 29 0 1 -1 32 0"/>
<path stroke="blue" d="M1257 564l0 -2 1 0 0 -1 2 0 1 -1 1 0 1 -1 2 0 1 -1 2 0 1 -1 2 0 1 -1 3 0 2 -1 3 0 1 -1 5 0 1 -1 6 0 2 -1 7 0 2 -1 11 0 2 -1 24 0 1 -1 66 0 2 2 1 0 1 1 2 0 1 1 2 0 1 1 3 0 0 -95 1 -80 1 -132 0 -90M1423 159l1 4M1424 170l0 -7"/>
<path stroke="blue" d="M1424 170l1 12 2 16 1 15 2 14 1 14 2 14 1 13 2 12 1 12 2 11 1 11 2 11 1 10 2 10 1 9 2 9 1 9 2 8 1 8 2 7 1 8 2 7 1 7 2 6 1 6 2 6 1 6 2 6 1 5 2 5 1 5 2 5 1 5 2 4 1 4 2 4 1 4 2 3 1 4 1 3 2 3 1 3 2 3 1 2 2 3 1 2 2 3 1 2 3 3"/>
<path stroke="blue" d="M1498 733l0 -211M1498 733l1 89M1499 922l0 -100M1499 919l1 -4 0 -8 1 -10 0 -9 2 -15 1 -14 1 -15 1 -17 2 -16 1 -14 2 -14 1 -12 2 -12 1 -11 2 -11 1 -10 2 -9 1 -9 2 -8 1 -8 2 -8 1 -7 2 -6 1 -7 2 -6 1 -5 2 -6 1 -5 2 -5 1 -4"/>
<path stroke="blue" d="M1539 634l2 -4 1 -5 2 -3 1 -4 2 -4 1 -3 2 -3 2 -6 2 -3 1 -1 0 -2 1 -1 0 -2 1 0 0 -1 1 0 2 -4 2 -2 1 -2 13 -13 2 -1 1 -1 2 -1 1 -1 2 -1 1 -1 2 -1 1 -1 2 0 1 -1 2 -1 1 0 2 -1 1 0 2 -1 1 0 2 -1 1 0 2 -1 1 0 2 -1 3 0 1 -1 3 0"/>
<path stroke="blue" d="M1615 555l2 -1 4 0 2 -1 4 0 2 -1 9 0 1 -1 12 0 1 -1 24 0 2 -1 28 0M1706 550l0 -1M1706 550l1 1 2 0 2 1 1 0 2 1 1 0 2 1 1 0 2 1 1 0 2 1 3 0 1 1 3 0 1 1 5 0 1 1 5 0 1 1 8 0 1 1 9 0 2 1 16 0 2 1 40 0 1 1 31 0"/>
<path stroke="#FFA500" d="M894 49l89 0"/>
<text stroke="none" fill="black" font-size="20" x="996" y="60">
out
</text>
<path stroke="#FFA500" d="M65 170l464 0M529 171l0 -1M529 171l1 1 0 -1 1 -1 23 0 1 1 17 0 1 -1 6 0 2 -1 1 0 2 -1 1 -1 2 1 1 7 1 20 2 27 1 28 2 27 1 26 2 25 1 23 2 21 1 20 2 19 1 9M604 428l0 -8M604 428l1 2M605 432l0 -2M605 432l1 2M606 439l0 -5"/>
<path stroke="#FFA500" d="M606 439l1 8M607 454l0 -7M607 454l2 11 1 8 1 9 1 10 2 10 1 10 2 10 1 10 2 10 1 9 2 9 1 8 2 3 1 2 2 1 1 1 2 0 1 1 3 0 2 1 9 0 1 1 23 0 1 1 303 0 1 1 2 0 2 -1 36 0 1 -1 3 0 2 -1 1 0 2 -1 3 -3 1 -9 2 -17 1 -20 2 -22 1 -23"/>
<path stroke="#FFA500" d="M1035 482l2 -24 1 -25 2 -27 1 -26 2 -27 1 -27 2 -26 1 -25 1 -23 2 -21 1 -9 0 -10 1 -5 0 -3 1 -1M1053 206l0 -3M1053 206l1 12M1054 236l0 -18M1054 236l1 26 2 28 1 21 1 20 1 19 2 15 1 12 2 8 1 5 2 0 1 -3 2 -8 1 -12 2 -17"/>
<path stroke="#FFA500" d="M1074 350l1 -20 2 -23 1 -25 2 -23 1 -23 2 -20 1 -17 2 -12 1 -8 3 -6 2 -1 1 -1 9 0 2 -1 319 0M1423 171l0 -1M1423 171l1 1 0 -1 1 -1 23 0 1 1 17 0 1 -1 6 0 2 -1 1 0 2 -1 1 -1 2 1 1 7 1 20 2 27 1 28 2 27 1 26 2 25 1 23 2 21"/>
<path stroke="#FFA500" d="M1494 372l1 21 3 27M1498 428l0 -8M1498 428l1 2M1499 432l0 -2M1499 432l1 2M1500 439l0 -5M1500 439l1 8M1501 454l0 -7M1501 454l2 11 1 8 1 9 1 10 2 10 1 10 2 10 1 10 2 10 1 9 2 9 1 8 2 3 1 2 2 1 1 1 2 0 1 1 3 0 2 1 9 0 1 1"/>
<path stroke="#FFA500" d="M1542 578l23 0 1 1 287 0"/>
</svg>
