<?xml version="1.0" encoding="UTF-8" standalone="no"?>
<svg
   xmlns:dc="http://purl.org/dc/elements/1.1/"
   xmlns:cc="http://creativecommons.org/ns#"
   xmlns:rdf="http://www.w3.org/1999/02/22-rdf-syntax-ns#"
   xmlns:svg="http://www.w3.org/2000/svg"
   xmlns="http://www.w3.org/2000/svg"
   width="500"
   height="500"
   viewBox="0 0 500 500"
   version="1.1"
   id="svg8">
  <defs
     id="defs2" />
  <metadata
     id="metadata5">
    <rdf:RDF>
      <cc:Work
         rdf:about="">
        <dc:format>image/svg+xml</dc:format>
        <dc:type
           rdf:resource="http://purl.org/dc/dcmitype/StillImage" />
        <dc:title></dc:title>
      </cc:Work>
    </rdf:RDF>
  </metadata>
  <g
     id="layer1"
     transform="translate(0,-164.70832)" />
  <rect
     y="300"
     x="0"
     height="200"
     width="500"
     id="rect840"
     style="fill:#d0b985;fill-opacity:1;stroke:none;stroke-opacity:1" />
  <rect
     ry="60"
     y="0"
     x="0"
     height="400"
     width="500"
     id="rect835"
     style="fill:#d6c193;fill-opacity:1;stroke:none;stroke-opacity:1" />
  <path
     id="rect867"
     d="m 410,0 v 310 c 0,22.16 -17.84,40 -40,40 H 100 C 77.84,350 60,332.16 60,310 V 0 Z"
     style="fill:#242424;fill-opacity:1;stroke:none;stroke-opacity:1" />
  <rect
     ry="10"
     y="280"
     x="425"
     height="30"
     width="60"
     id="rect897"
     style="fill:#242424;fill-opacity:1;stroke:none;stroke-opacity:1" />
  <rect
     ry="15"
     y="25"
     x="85"
     height="300"
     width="300"
     id="rect901"
     style="fill:#006400;fill-opacity:1;stroke:none;stroke-opacity:1" />
  <g
     id="text823"
     style="font-style:normal;font-weight:normal;font-size:40px;line-height:1.25;font-family:sans-serif;letter-spacing:0px;word-spacing:0px;fill:#000000;fill-opacity:1;stroke:none"
     aria-label="BK">
    <path
       id="path825"
       style="font-style:normal;font-variant:normal;font-weight:normal;font-stretch:normal;font-size:333.33334351px;font-family:Unifont;-inkscape-font-specification:Unifont;fill:#00ff00;fill-opacity:1"
       d="m 88.997229,72.942966 q 0,0 0,208.333344 H 193.1639 v -20.83334 h -83.33334 q 0,0 0,-83.33333 h 83.33334 q 0,0 0,83.33333 h 20.83333 q 0,0 0,-83.33333 H 193.1639 V 156.2763 h -83.33334 v -62.5 h 83.33334 v 62.5 h 20.83333 v -62.5 H 193.1639 V 72.942966 Z" />
    <path
       id="path827"
       style="font-style:normal;font-variant:normal;font-weight:normal;font-stretch:normal;font-size:333.33334351px;font-family:Unifont;-inkscape-font-specification:Unifont;fill:#00ff00;fill-opacity:1"
       d="m 380.6639,281.27631 v -20.83334 h -20.83333 v 20.83334 z m 0,-187.50001 V 72.942966 H 359.83057 V 93.7763 h -20.83333 v 20.83333 H 318.1639 v 20.83334 h -20.83333 v 20.83333 h -20.83334 q 0,0 0,-83.333334 H 255.6639 q 0,0 0,208.333344 h 20.83333 q 0,0 0,-83.33334 h 20.83334 v 20.83333 h 20.83333 v 20.83334 h 20.83334 v 20.83333 h 20.83333 V 239.60964 H 338.99724 V 218.7763 H 318.1639 v -20.83333 h -20.83333 q 0,0 0,-41.66667 h 20.83333 v -20.83333 h 20.83334 v -20.83334 h 20.83333 V 93.7763 Z" />
  </g>
</svg>
