<?xml version="1.0" encoding="UTF-8" standalone="no"?>
<svg
   xmlns:dc="http://purl.org/dc/elements/1.1/"
   xmlns:cc="http://creativecommons.org/ns#"
   xmlns:rdf="http://www.w3.org/1999/02/22-rdf-syntax-ns#"
   xmlns:svg="http://www.w3.org/2000/svg"
   xmlns="http://www.w3.org/2000/svg"
   id="terminal"
   version="1.1"
   viewBox="0 0 211.66666 158.75"
   height="600"
   width="800">
  <defs
     id="defs2" />
  <metadata
     id="metadata5">
    <rdf:RDF>
      <cc:Work
         rdf:about="">
        <dc:format>image/svg+xml</dc:format>
        <dc:type
           rdf:resource="http://purl.org/dc/dcmitype/StillImage" />
        <dc:title></dc:title>
      </cc:Work>
    </rdf:RDF>
  </metadata>
  <g
     transform="translate(0,-138.25)"
     id="layer1">
    <rect
       y="257.18021"
       x="0.13229166"
       height="39.6875"
       width="211.66666"
       id="rect4569"
       style="fill:#d0b985;fill-opacity:1;stroke:#d0b985;stroke-width:0.26458332;stroke-opacity:1" />
    <path
       id="rect16"
       transform="matrix(0.26458333,0,0,0.26458333,0,138.25)"
       d="m 25.5,-0.5 c -13.85,0 -25,11.15 -25,25 v 450 c 0,13.85 11.15,25 25,25 h 750 c 13.85,0 25,-11.15 25,-25 v -450 c 0,-13.85 -11.15,-25 -25,-25 z m 75,25 h 450 c 13.85,0 25,11.15 25,25 v 350 c 0,13.85 -11.15,25 -25,25 h -450 c -13.85,0 -25,-11.15 -25,-25 v -350 c 0,-13.85 11.15,-25 25,-25 z"
       style="fill:#d6c193;fill-opacity:1;stroke:#d6c193;stroke-width:0.9985438;stroke-opacity:1" />
    <path
       id="rect4544"
       transform="matrix(0.26458333,0,0,0.26458333,0,138.25)"
       d="m 50.5,-0.5 v 400 c 0,27.70001 22.300001,50 50,50 h 450 c 27.70001,0 50,-22.29999 50,-50 v -400 z m 50,25 h 450 c 13.85,0 25,11.15 25,25 v 350 c 0,13.85 -11.15,25 -25,25 h -450 c -13.85,0 -25,-11.15 -25,-25 v -350 c 0,-13.85 11.15,-25 25,-25 z"
       style="fill:#000000;fill-opacity:1;stroke:#000000;stroke-width:0.99999994;stroke-opacity:1" />
    <rect
       ry="1.3229166"
       y="233.36771"
       x="165.49687"
       height="10.583333"
       width="39.6875"
       id="rect4783"
       style="fill:#000000;fill-opacity:1;stroke:#000000;stroke-width:0.26458332;stroke-opacity:1" />
    <rect
       y="275.70105"
       x="8.0697918"
       height="15.875"
       width="15.875"
       id="rect819"
       style="fill:#000000;fill-opacity:1;stroke:#000000;stroke-width:0.26458332;stroke-opacity:1" />
    <rect
       y="277.81772"
       x="10.186459"
       height="11.641666"
       width="11.641666"
       id="rect821"
       style="fill:#ff0000;fill-opacity:1;stroke:#ff0000;stroke-width:0.26458332;stroke-opacity:1" />
    <rect
       y="235.70151"
       x="167.0536"
       height="5.6037011"
       width="2.3812499"
       id="rect845"
       style="fill:#ffffff;fill-opacity:1;stroke:#ffffff;stroke-width:0.26458332;stroke-opacity:1" />
    <rect
       y="235.70151"
       x="184.75006"
       height="5.6037011"
       width="2.3812499"
       id="rect845-1"
       style="fill:#ffffff;fill-opacity:1;stroke:#ffffff;stroke-width:0.26458332;stroke-opacity:1" />
    <rect
       y="235.70151"
       x="181.82074"
       height="5.6037011"
       width="2.3812499"
       id="rect845-7"
       style="fill:#ffffff;fill-opacity:1;stroke:#ffffff;stroke-width:0.26458332;stroke-opacity:1" />
    <rect
       y="235.70151"
       x="178.79692"
       height="5.6037011"
       width="2.3812499"
       id="rect845-8"
       style="fill:#ffffff;fill-opacity:1;stroke:#ffffff;stroke-width:0.26458332;stroke-opacity:1" />
    <rect
       y="235.70151"
       x="175.77312"
       height="5.6037011"
       width="2.3812499"
       id="rect845-4"
       style="fill:#ffffff;fill-opacity:1;stroke:#ffffff;stroke-width:0.26458332;stroke-opacity:1" />
    <rect
       y="235.70151"
       x="172.86742"
       height="5.6037011"
       width="2.3812499"
       id="rect845-0"
       style="fill:#ffffff;fill-opacity:1;stroke:#ffffff;stroke-width:0.26458332;stroke-opacity:1" />
    <rect
       y="235.70151"
       x="169.95457"
       height="5.6037011"
       width="2.3812499"
       id="rect845-5"
       style="fill:#ffffff;fill-opacity:1;stroke:#ffffff;stroke-width:0.26458332;stroke-opacity:1" />
    <text
       id="text822"
       y="240.30923"
       x="166.64026"
       style="font-style:normal;font-weight:normal;font-size:10.58333302px;line-height:1.25;font-family:sans-serif;letter-spacing:0px;word-spacing:0px;fill:#000000;fill-opacity:1;stroke:none;stroke-width:0.26458332"
       xml:space="preserve"><tspan
         style="font-style:normal;font-variant:normal;font-weight:normal;font-stretch:normal;font-size:4.93888903px;font-family:monospace;-inkscape-font-specification:monospace;fill:#000000;stroke-width:0.26458332"
         y="240.30923"
         x="166.64026"
         id="tspan820">classic</tspan></text>
    <text
       id="text826"
       y="240.30923"
       x="188.79909"
       style="font-style:normal;font-weight:normal;font-size:10.58333302px;line-height:1.25;font-family:sans-serif;letter-spacing:0px;word-spacing:0px;fill:#ff6600;fill-opacity:1;stroke:none;stroke-width:0.26458332"
       xml:space="preserve"><tspan
         style="font-size:4.93888903px;fill:#ff6600;stroke-width:0.26458332"
         y="240.30923"
         x="188.79909"
         id="tspan824">VT100</tspan></text>
    <ellipse
       ry="5.2916718"
       rx="5.2916641"
       cy="286.28436"
       cx="190.63229"
       id="path954"
       style="fill:#5a5a5a;fill-opacity:1;stroke:#5a5a5a;stroke-width:0.26458332;stroke-opacity:1" />
  </g>
</svg>
