<?xml version="1.0" encoding="UTF-8" standalone="no"?>
<svg
   xmlns:dc="http://purl.org/dc/elements/1.1/"
   xmlns:cc="http://creativecommons.org/ns#"
   xmlns:rdf="http://www.w3.org/1999/02/22-rdf-syntax-ns#"
   xmlns:svg="http://www.w3.org/2000/svg"
   xmlns="http://www.w3.org/2000/svg"
   xmlns:xlink="http://www.w3.org/1999/xlink"
   xmlns:sodipodi="http://sodipodi.sourceforge.net/DTD/sodipodi-0.dtd"
   xmlns:inkscape="http://www.inkscape.org/namespaces/inkscape"
   width="800"
   height="600"
   viewBox="0 0 800 600"
   version="1.1"
   id="terminal"
   sodipodi:docname="terminal.svg"
   inkscape:version="0.92.5 (2060ec1f9f, 2020-04-08)">
  <sodipodi:namedview
     pagecolor="#ffffff"
     bordercolor="#666666"
     borderopacity="1"
     objecttolerance="10"
     gridtolerance="10"
     guidetolerance="10"
     inkscape:pageopacity="0"
     inkscape:pageshadow="2"
     inkscape:window-width="1920"
     inkscape:window-height="1021"
     id="namedview42"
     showgrid="false"
     inkscape:zoom="5.6"
     inkscape:cx="645.54692"
     inkscape:cy="519.8469"
     inkscape:window-x="0"
     inkscape:window-y="0"
     inkscape:window-maximized="1"
     inkscape:current-layer="terminal" />
  <defs
     id="defs2">
    <linearGradient
       id="linearGradient930">
      <stop
         id="stop926"
         offset="0"
         style="stop-color:#d0b985;stop-opacity:1;" />
      <stop
         id="stop928"
         offset="1"
         style="stop-color:#000000;stop-opacity:1" />
    </linearGradient>
    <linearGradient
       gradientUnits="userSpaceOnUse"
       y2="239.16331"
       x2="105.39804"
       y1="274.18442"
       x1="105.20863"
       id="linearGradient932"
       xlink:href="#linearGradient930" />
  </defs>
  <metadata
     id="metadata5">
    <rdf:RDF>
      <cc:Work
         rdf:about="">
        <dc:format>image/svg+xml</dc:format>
        <dc:type
           rdf:resource="http://purl.org/dc/dcmitype/StillImage" />
        <dc:title />
      </cc:Work>
    </rdf:RDF>
  </metadata>
  <g
     style="display:inline"
     id="layer1"
     transform="matrix(3.7748125,0,0,3.7732363,0,-520.65117)">
    <rect
       style="fill:url(#linearGradient932);fill-opacity:1;stroke:none;stroke-width:0.26470417;stroke-miterlimit:4;stroke-dasharray:none;stroke-opacity:1"
       id="rect4569"
       width="211.66666"
       height="39.6875"
       x="0.13229166"
       y="257.18021" />
    <path
       style="fill:#d6c193;fill-opacity:1;stroke:#d6c193;stroke-width:0.9985438;stroke-opacity:1"
       d="m 25.5,-0.5 c -13.85,0 -25,11.15 -25,25 v 450 c 0,13.85 11.15,25 25,25 h 750 c 13.85,0 25,-11.15 25,-25 v -450 c 0,-13.85 -11.15,-25 -25,-25 z m 75,25 h 450 c 13.85,0 25,11.15 25,25 v 350 c 0,13.85 -11.15,25 -25,25 h -450 c -13.85,0 -25,-11.15 -25,-25 v -350 c 0,-13.85 11.15,-25 25,-25 z"
       id="rect16"
       transform="matrix(0.26458333,0,0,0.26458333,0,138.25)"
       inkscape:connector-curvature="0" />
    <path
       style="fill:#000000;fill-opacity:1;stroke:#000000;stroke-width:0.99999994;stroke-opacity:1"
       d="m 50.5,-0.5 v 400 c 0,27.70001 22.300001,50 50,50 h 450 c 27.70001,0 50,-22.29999 50,-50 v -400 z m 50,25 h 450 c 13.85,0 25,11.15 25,25 v 350 c 0,13.85 -11.15,25 -25,25 h -450 c -13.85,0 -25,-11.15 -25,-25 v -350 c 0,-13.85 11.15,-25 25,-25 z"
       transform="matrix(0.26458333,0,0,0.26458333,0,138.25)"
       id="rect4544"
       inkscape:connector-curvature="0" />
  </g>
  <rect
     ry="5"
     y="610"
     x="-440"
     height="80"
     width="300"
     id="rect838"
     style="fill:#000000;fill-opacity:1;stroke:none;stroke-opacity:1"
     transform="rotate(-90)" />
  <rect
     y="640"
     x="-430"
     height="10"
     width="280"
     id="rect840"
     style="fill:#595959;fill-opacity:1;stroke:none;stroke-opacity:1"
     transform="rotate(-90)" />
  <rect
     y="650"
     x="-332"
     height="30"
     width="94"
     id="rect842"
     style="fill:#363636;fill-opacity:1;stroke:none;stroke-opacity:1"
     transform="rotate(-90)" />
  <rect
     y="623"
     x="-332"
     height="17"
     width="94"
     id="rect850"
     style="fill:#1c1c1c;fill-opacity:1;stroke:none;stroke-opacity:1"
     transform="rotate(-90)" />
  <rect
     y="625"
     x="-330"
     height="35"
     width="90"
     id="rect844"
     style="fill:#292929;fill-opacity:1;stroke:none;stroke-opacity:1"
     transform="rotate(-90)" />
  <rect
     y="655"
     x="-330"
     height="5"
     width="90"
     id="rect846"
     style="fill:#050505;fill-opacity:1;stroke:none;stroke-opacity:1"
     transform="rotate(-90)" />
  <rect
     y="370"
     x="665"
     height="20"
     width="10"
     id="rect852"
     style="fill:#560000;fill-opacity:1;stroke:none;stroke-opacity:1" />
  <circle
     style="fill:#5b5b5b;fill-opacity:1;stroke:none;stroke-width:0.99900001;stroke-miterlimit:4;stroke-dasharray:none;stroke-opacity:1"
     id="path849"
     cx="720"
     cy="560"
     r="20" />
  <rect
     ry="5"
     y="700"
     x="-440"
     height="80"
     width="300"
     id="rect838-3"
     style="fill:#000000;fill-opacity:1;stroke:none;stroke-opacity:1"
     transform="rotate(-90)" />
  <rect
     y="730"
     x="-430"
     height="10"
     width="280"
     id="rect840-6"
     style="fill:#595959;fill-opacity:1;stroke:none;stroke-opacity:1"
     transform="rotate(-90)" />
  <rect
     y="740"
     x="-332"
     height="30"
     width="94"
     id="rect842-7"
     style="fill:#363636;fill-opacity:1;stroke:none;stroke-opacity:1"
     transform="rotate(-90)" />
  <rect
     y="713"
     x="-332"
     height="17"
     width="94"
     id="rect850-5"
     style="fill:#1c1c1c;fill-opacity:1;stroke:none;stroke-opacity:1"
     transform="rotate(-90)" />
  <rect
     y="715"
     x="-330"
     height="35"
     width="90"
     id="rect844-3"
     style="fill:#292929;fill-opacity:1;stroke:none;stroke-opacity:1"
     transform="rotate(-90)" />
  <rect
     y="745"
     x="-330"
     height="5"
     width="90"
     id="rect846-5"
     style="fill:#050505;fill-opacity:1;stroke:none;stroke-opacity:1"
     transform="rotate(-90)" />
  <rect
     y="370"
     x="755"
     height="20"
     width="10"
     id="rect852-6"
     style="fill:#560000;fill-opacity:1;stroke:none;stroke-opacity:1" />
  <rect
     style="fill:#8e8e8e;fill-opacity:1;stroke:none;stroke-width:14.92300034;stroke-miterlimit:4;stroke-dasharray:none;stroke-opacity:1"
     id="rect872"
     width="150"
     height="50"
     x="620"
     y="30"
     ry="20" />
  <text
     xml:space="preserve"
     style="font-style:normal;font-variant:normal;font-weight:normal;font-stretch:normal;font-size:40px;line-height:1.25;font-family:Plaster;-inkscape-font-specification:Plaster;letter-spacing:0px;word-spacing:0px;fill:#000000;fill-opacity:1;stroke:none"
     x="640"
     y="71.071426"
     id="text837"><tspan
       sodipodi:role="line"
       id="tspan835"
       x="640"
       y="107.32143" /></text>
  <text
     xml:space="preserve"
     style="font-style:normal;font-variant:normal;font-weight:normal;font-stretch:normal;font-size:26.66666667px;line-height:1.25;font-family:Plaster;-inkscape-font-specification:Plaster;letter-spacing:0px;word-spacing:0px;fill:#000000;fill-opacity:1;stroke:none;"
     x="641.07141"
     y="58.92857"
     id="text843"><tspan
       sodipodi:role="line"
       id="tspan841"
       x="641.07141"
       y="74.636902"></tspan></text>
  <g
     aria-label="Retro"
     style="font-style:normal;font-variant:normal;font-weight:normal;font-stretch:normal;font-size:26.66666603px;line-height:1.25;font-family:Plaster;-inkscape-font-specification:Plaster;letter-spacing:0px;word-spacing:0px;fill:#ffffff;fill-opacity:1;stroke:none"
     id="text847">
    <path
       d="m 666.57035,40.667391 q 0,3.145834 -2.75,4.135417 1.54167,0.572917 2.32292,1.864583 0.67708,1.145834 0.67708,2.666667 v 1.104167 h -6.20833 V 36.240308 h 0.54167 q 2.75,0 4.05208,1.041666 1.36458,1.09375 1.36458,3.385417 z m -13.29166,-4.40625 h 5.60416 v 14.177084 h -5.60416 z"
       style="font-size:21.33333397px;fill:#ffffff;fill-opacity:1"
       id="path855"
       inkscape:connector-curvature="0" />
    <path
       d="m 676.90369,39.813224 h 0.6875 q 3.9375,0 4.80208,2.666667 0.28125,0.885417 0.28125,2.052084 v 1.145833 h -5.77083 z m -7.52084,5.437501 q 0,-1.145834 0.30209,-2.125 0.30208,-0.989584 0.9375,-1.729167 1.375,-1.583334 3.9375,-1.583334 h 0.80208 v 10.625001 h -0.54167 q -2.625,0 -4.0625,-1.4375 -1.375,-1.375 -1.375,-3.75 z m 7.52084,2.46875 h 5.20833 v 0.291666 q 0,0.96875 -0.69792,1.635417 -0.85416,0.791667 -2.42708,0.791667 h -2.08333 z"
       style="font-size:21.33333397px;fill:#ffffff;fill-opacity:1"
       id="path857"
       inkscape:connector-curvature="0" />
    <path
       d="m 690.52869,50.438225 q -5.15625,0 -5.15625,-4.708334 v -5.854167 l 4.40625,-2.885416 h 1.5625 v 13.447917 z m 2.32291,-10.625001 h 4.98959 v 3.489584 h -4.98959 z m 0.0104,6.177084 h 5.78125 v 0.916667 q 0,1.770833 -1.08333,2.614583 -1.17709,0.916667 -3.80209,0.916667 H 692.862 Z"
       style="font-size:21.33333397px;fill:#ffffff;fill-opacity:1"
       id="path859"
       inkscape:connector-curvature="0" />
    <path
       d="m 709.26827,42.771558 q 0,-2.958334 3.82292,-2.958334 h 1.45833 v 5.312501 h -5.28125 z m -7.29167,-2.958334 h 5.79167 v 10.625001 h -5.79167 z"
       style="font-size:21.33333397px;fill:#ffffff;fill-opacity:1"
       id="path861"
       inkscape:connector-curvature="0" />
    <path
       d="m 724.84119,39.813224 h 0.80208 q 2.5625,0 3.9375,1.583334 1.23958,1.4375 1.23958,3.8125 0,2.416667 -1.375,3.791667 -1.4375,1.4375 -4.0625,1.4375 h -0.54166 z m -7.66667,5.437501 q 0,-1.145834 0.30208,-2.125 0.30209,-0.989584 0.9375,-1.729167 1.375,-1.583334 3.9375,-1.583334 h 0.80209 v 10.625001 h -0.54167 q -2.625,0 -4.0625,-1.4375 -1.375,-1.375 -1.375,-3.75 z"
       style="font-size:21.33333397px;fill:#ffffff;fill-opacity:1"
       id="path863"
       inkscape:connector-curvature="0" />
  </g>
  <g
     aria-label="Computer"
     style="font-style:normal;font-variant:normal;font-weight:normal;font-stretch:normal;font-size:26.66666603px;line-height:1.25;font-family:Plaster;-inkscape-font-specification:Plaster;letter-spacing:0px;word-spacing:0px;fill:#ffffff;fill-opacity:1;stroke:none"
     id="text853">
    <path
       d="m 636.36458,54.037203 h 5.75 V 61.32887 H 641.375 q -2.6875,0 -3.85417,-0.927083 -1.15625,-0.927084 -1.15625,-3.156251 z m -2.08333,14.177084 q -1.6875,0 -3,-1.25 -1.15625,-1.104167 -1.8125,-2.9375 -0.60417,-1.6875 -0.60417,-3.34375 0,-2.489584 1.22917,-4.427084 0.875,-1.375 2.30208,-1.9375 0.72917,-0.28125 1.625,-0.28125 h 0.80209 v 14.177084 z m 2.08333,-2.71875 h 5.20834 v 0.291666 q 0,0.96875 -0.69792,1.635417 -0.85417,0.791667 -2.42708,0.791667 h -2.08334 z"
       style="font-size:21.33333397px;fill:#ffffff;fill-opacity:1"
       id="path866"
       inkscape:connector-curvature="0" />
    <path
       d="m 652.3125,57.589286 h 0.80208 q 2.5625,0 3.9375,1.583334 1.23959,1.4375 1.23959,3.8125 0,2.416667 -1.375,3.791667 -1.4375,1.4375 -4.0625,1.4375 h -0.54167 z m -7.66667,5.437501 q 0,-1.145834 0.30209,-2.125 0.30208,-0.989584 0.9375,-1.729167 1.375,-1.583334 3.9375,-1.583334 h 0.80208 v 10.625001 h -0.54167 q -2.625,0 -4.0625,-1.4375 -1.375,-1.375 -1.375,-3.75 z"
       style="font-size:21.33333397px;fill:#ffffff;fill-opacity:1"
       id="path868"
       inkscape:connector-curvature="0" />
    <path
       d="m 676.69792,57.589286 h 0.9375 q 3.83333,0 4.57291,2.604167 0.25,0.84375 0.25,1.947917 v 6.072917 h -5.76041 z m -7.72917,0 h 0.9375 q 3.83333,0 4.57292,2.604167 0.25,0.84375 0.25,1.947917 v 6.072917 h -5.76042 z m -7.75,0 h 5.79167 v 10.625001 h -5.79167 z"
       style="font-size:21.33333397px;fill:#ffffff;fill-opacity:1"
       id="path870"
       inkscape:connector-curvature="0" />
    <path
       d="m 692.875,57.589286 h 0.80208 q 2.5625,0 3.93751,1.583334 1.23958,1.4375 1.23958,3.8125 0,2.416667 -1.375,3.791667 -1.4375,1.4375 -4.0625,1.4375 H 692.875 Z m -7.29167,0 h 5.60417 v 14.166668 h -5.60417 z"
       style="font-size:21.33333397px;fill:#ffffff;fill-opacity:1"
       id="path872"
       inkscape:connector-curvature="0" />
    <path
       d="m 709.04167,57.589286 h 5.79167 v 10.625001 h -5.79167 z m -7.47917,0 h 5.76042 v 10.625001 h -0.9375 q -3.83333,0 -4.57292,-2.604167 -0.25,-0.84375 -0.25,-1.947917 z"
       style="font-size:21.33333397px;fill:#ffffff;fill-opacity:1"
       id="path874"
       inkscape:connector-curvature="0" />
    <path
       d="m 722.69792,68.214287 q -5.15625,0 -5.15625,-4.708334 v -5.854167 l 4.40625,-2.885416 h 1.5625 v 13.447917 z m 2.32291,-10.625001 h 4.98959 v 3.489584 h -4.98959 z m 0.0104,6.177084 h 5.78125 v 0.916667 q 0,1.770833 -1.08333,2.614583 -1.17709,0.916667 -3.80209,0.916667 h -0.89583 z"
       style="font-size:21.33333397px;fill:#ffffff;fill-opacity:1"
       id="path876"
       inkscape:connector-curvature="0" />
    <path
       d="m 741.03126,57.589286 h 0.6875 q 3.9375,0 4.80208,2.666667 0.28125,0.885417 0.28125,2.052084 v 1.145833 h -5.77083 z m -7.52084,5.437501 q 0,-1.145834 0.30209,-2.125 0.30208,-0.989584 0.9375,-1.729167 1.375,-1.583334 3.9375,-1.583334 h 0.80208 v 10.625001 h -0.54167 q -2.625,0 -4.0625,-1.4375 -1.375,-1.375 -1.375,-3.75 z m 7.52084,2.46875 h 5.20833 v 0.291666 q 0,0.96875 -0.69792,1.635417 -0.85416,0.791667 -2.42708,0.791667 h -2.08333 z"
       style="font-size:21.33333397px;fill:#ffffff;fill-opacity:1"
       id="path878"
       inkscape:connector-curvature="0" />
    <path
       d="m 757.41667,60.54762 q 0,-2.958334 3.82292,-2.958334 h 1.45833 v 5.312501 h -5.28125 z M 750.125,57.589286 h 5.79167 V 68.214287 H 750.125 Z"
       style="font-size:21.33333397px;fill:#ffffff;fill-opacity:1"
       id="path880"
       inkscape:connector-curvature="0" />
  </g>
</svg>
