<?xml version="1.0" encoding="UTF-8" standalone="no"?>
<svg
   xmlns:dc="http://purl.org/dc/elements/1.1/"
   xmlns:cc="http://creativecommons.org/ns#"
   xmlns:rdf="http://www.w3.org/1999/02/22-rdf-syntax-ns#"
   xmlns:svg="http://www.w3.org/2000/svg"
   xmlns="http://www.w3.org/2000/svg"
   xmlns:xlink="http://www.w3.org/1999/xlink"
   xmlns:sodipodi="http://sodipodi.sourceforge.net/DTD/sodipodi-0.dtd"
   xmlns:inkscape="http://www.inkscape.org/namespaces/inkscape"
   width="800"
   height="600"
   viewBox="0 0 800 600"
   version="1.1"
   id="terminal"
   sodipodi:docname="terminal.svg"
   inkscape:version="0.92.5 (2060ec1f9f, 2020-04-08)">
  <sodipodi:namedview
     pagecolor="#ffffff"
     bordercolor="#666666"
     borderopacity="1"
     objecttolerance="10"
     gridtolerance="10"
     guidetolerance="10"
     inkscape:pageopacity="0"
     inkscape:pageshadow="2"
     inkscape:window-width="1920"
     inkscape:window-height="1021"
     id="namedview42"
     showgrid="false"
     inkscape:zoom="0.70000001"
     inkscape:cx="236.8997"
     inkscape:cy="358.94707"
     inkscape:window-x="0"
     inkscape:window-y="0"
     inkscape:window-maximized="1"
     inkscape:current-layer="layer1" />
  <defs
     id="defs2">
    <linearGradient
       id="linearGradient930">
      <stop
         id="stop926"
         offset="0"
         style="stop-color:#d0b985;stop-opacity:1;" />
      <stop
         id="stop928"
         offset="1"
         style="stop-color:#000000;stop-opacity:1" />
    </linearGradient>
    <linearGradient
       gradientUnits="userSpaceOnUse"
       y2="239.16331"
       x2="105.39804"
       y1="274.18442"
       x1="105.20863"
       id="linearGradient932"
       xlink:href="#linearGradient930" />
  </defs>
  <metadata
     id="metadata5">
    <rdf:RDF>
      <cc:Work
         rdf:about="">
        <dc:format>image/svg+xml</dc:format>
        <dc:type
           rdf:resource="http://purl.org/dc/dcmitype/StillImage" />
        <dc:title></dc:title>
      </cc:Work>
    </rdf:RDF>
  </metadata>
  <g
     style="display:inline"
     id="layer1"
     transform="matrix(3.7748125,0,0,3.7732363,0,-520.65117)">
    <rect
       style="fill:url(#linearGradient932);fill-opacity:1;stroke:none;stroke-width:0.26470417;stroke-miterlimit:4;stroke-dasharray:none;stroke-opacity:1"
       id="rect4569"
       width="211.66666"
       height="39.6875"
       x="0.13229166"
       y="257.18021" />
    <path
       style="fill:#d6c193;fill-opacity:1;stroke:#d6c193;stroke-width:0.9985438;stroke-opacity:1"
       d="m 25.5,-0.5 c -13.85,0 -25,11.15 -25,25 v 450 c 0,13.85 11.15,25 25,25 h 750 c 13.85,0 25,-11.15 25,-25 v -450 c 0,-13.85 -11.15,-25 -25,-25 z m 75,25 h 450 c 13.85,0 25,11.15 25,25 v 350 c 0,13.85 -11.15,25 -25,25 h -450 c -13.85,0 -25,-11.15 -25,-25 v -350 c 0,-13.85 11.15,-25 25,-25 z"
       id="rect16"
       transform="matrix(0.26458333,0,0,0.26458333,0,138.25)"
       inkscape:connector-curvature="0" />
    <path
       style="fill:#000000;fill-opacity:1;stroke:#000000;stroke-width:0.99999994;stroke-opacity:1"
       d="m 50.5,-0.5 v 400 c 0,27.70001 22.300001,50 50,50 h 450 c 27.70001,0 50,-22.29999 50,-50 v -400 z m 50,25 h 450 c 13.85,0 25,11.15 25,25 v 350 c 0,13.85 -11.15,25 -25,25 h -450 c -13.85,0 -25,-11.15 -25,-25 v -350 c 0,-13.85 11.15,-25 25,-25 z"
       transform="matrix(0.26458333,0,0,0.26458333,0,138.25)"
       id="rect4544"
       inkscape:connector-curvature="0" />
  </g>
  <rect
     ry="5"
     y="510"
     x="50"
     height="80"
     width="300"
     id="rect838"
     style="fill:#000000;fill-opacity:1;stroke:none;stroke-opacity:1" />
  <rect
     y="540"
     x="60"
     height="10"
     width="280"
     id="rect840"
     style="fill:#595959;fill-opacity:1;stroke:none;stroke-opacity:1" />
  <rect
     y="550"
     x="158"
     height="30"
     width="94"
     id="rect842"
     style="fill:#363636;fill-opacity:1;stroke:none;stroke-opacity:1" />
  <rect
     y="523"
     x="158"
     height="17"
     width="94"
     id="rect850"
     style="fill:#1c1c1c;fill-opacity:1;stroke:none;stroke-opacity:1" />
  <rect
     y="525"
     x="160"
     height="35"
     width="90"
     id="rect844"
     style="fill:#292929;fill-opacity:1;stroke:none;stroke-opacity:1" />
  <rect
     y="555"
     x="160"
     height="5"
     width="90"
     id="rect846"
     style="fill:#050505;fill-opacity:1;stroke:none;stroke-opacity:1" />
  <rect
     y="560"
     x="90"
     height="10"
     width="20"
     id="rect852"
     style="fill:#560000;fill-opacity:1;stroke:none;stroke-opacity:1" />
  <circle
     style="fill:#5b5b5b;fill-opacity:1;stroke:none;stroke-width:0.99900001;stroke-miterlimit:4;stroke-dasharray:none;stroke-opacity:1"
     id="path849"
     cx="720"
     cy="560"
     r="20" />
</svg>
